<svg xmlns="http://www.w3.org/2000/svg" viewBox="0 0 42.49 42.49"><defs><style>.cls-1{fill:#4ddb51;}.cls-2{fill:#1818de;}</style></defs><g id="Capa_1" data-name="Capa 1"><path class="cls-1" d="M21.25,42.49A21.25,21.25,0,1,1,42.49,21.25,21.27,21.27,0,0,1,21.25,42.49Zm0-40A18.77,18.77,0,1,0,40,21.25,18.79,18.79,0,0,0,21.25,2.48Z"/><path class="cls-2" d="M15.85,24.67l.84.39L32.36,13.43A.82.82,0,0,0,31.65,12L6.92,18.81a.82.82,0,0,0-.14,1.54l9.07,4.32.84.39-.84-.39Z"/><path class="cls-1" d="M15.85,24.67l-.14-.93,1.64,10.85a.82.82,0,0,0,1.51.31L32.58,13.22a.83.83,0,0,0-1.19-1.11Z"/></g></svg>